PathFileType	4	(X/Y/Z)	pose_F01_0-96.trc
DataRate	CameraRate	NumFrames	NumMarkers	Units	OrigDataRate	OrigDataStartFrame	OrigNumFrames
30	30	6	21	m	30	60	96
Frame#	Time	CHip			RHip			RKnee			RAnkle			RBigToe			RSmallToe			RHeel			LHip			LKnee			LAnkle			LBigToe			LSmallToe			LHeel			Neck			Nose			RShoulder			RElbow			RWrist			LShoulder			LElbow			LWrist			
		X1	Y1	Z1	X2	Y2	Z2	X3	Y3	Z3	X4	Y4	Z4	X5	Y5	Z5	X6	Y6	Z6	X7	Y7	Z7	X8	Y8	Z8	X9	Y9	Z9	X10	Y10	Z10	X11	Y11	Z11	X12	Y12	Z12	X13	Y13	Z13	X14	Y14	Z14	X15	Y15	Z15	X16	Y16	Z16	X17	Y17	Z17	X18	Y18	Z18	X19	Y19	Z19	X20	Y20	Z20	X21	Y21	Z21	
60	2.0	-0.22352212441221614	1.902685182452245	-0.4867129193135913	-0.2401156987508675	1.8994574897642715	-0.4278294378726612	-0.24316866731774267	1.7446997428569795	-0.3888548228203874	-0.22050606533921788	1.5601761556244726	-0.4893017472452851	-0.2663667628028408	1.5290933083590135	-0.5099319749993143				-0.22894115666493367	1.584530900282586	-0.4467268845871624	-0.2097127389923299	1.904336865419386	-0.5410652540819543	-0.1858982158165482	1.7592656371878517	-0.5132323383723765	-0.15182737993819803	1.6373729179230094	-0.4637319240289396	-0.17862049051858425	1.5679204907238438	-0.5328967250935639	-0.15858220803911205	1.5897644621686222	-0.5284713948361767	-0.1582014225347573	1.6036737827781256	-0.48779213296781326	-0.2054556196489781	2.0666503996559213	-0.4972434091766349	-0.22703653221389575	2.135950176065802	-0.5254885338947675	-0.22176760096343517	2.0637322626192036	-0.415204512102268	-0.2697324059148083	2.079340146572317	-0.3665758407689	-0.25644595013552324	2.130466605131416	-0.45678951896524334	-0.18710969884375006	2.070125642646134	-0.5713997481860351	-0.219783017970341	2.0866871746073343	-0.6490988387390071	-0.22093451104234593	2.1266727641304675	-0.5938997594184104
61	2.033333333333333	-0.2275467006768469	1.90001500439999	-0.4818841517440011	-0.2429746980291802	1.8968786114694314	-0.4197404345086392	-0.24598893405214253	1.7410492473992532	-0.38968585088172675	-0.22050606533921788	1.5601761556244726	-0.4893017472452851	-0.2663667628028408	1.5290933083590135	-0.5099319749993143				-0.22894115666493367	1.584530900282586	-0.4467268845871624	-0.21191184789188358	1.9017754956882116	-0.5384117233172798	-0.18629836633125782	1.7556077784538087	-0.5126615797968371	-0.1511621758476317	1.626928907002569	-0.47539077444632455	-0.17862049051858425	1.5679204907238438	-0.5328967250935639	-0.15858220803911205	1.5897644621686222	-0.5284713948361767	-0.1582014225347573	1.6036737827781256	-0.48779213296781326	-0.20728461838510046	2.0675546688703204	-0.49491756664542885	-0.2301077080755466	2.132718335277303	-0.524890166758882	-0.22182948791365428	2.0637338401369827	-0.4150061448488266	-0.2898784326863861	2.105417355280845	-0.42804210716610464	-0.25028811241210996	2.1496623608846614	-0.4501006492380982	-0.1841396112974088	2.071097381141344	-0.5703251650220255	-0.2164410263800494	2.086347811655173	-0.6565038179214393	-0.2246034474629066	2.1268074172081626	-0.5890899560668796
62	2.066666666666667	-0.22777000931605587	1.9000825969303663	-0.48221466377543365	-0.2432750753035101	1.8968858348843753	-0.41995869357596166	-0.24489345036539165	1.740258383544061	-0.38639476385789195	-0.22050606533921788	1.5601761556244726	-0.4893017472452851	-0.2663667628028408	1.5290933083590135	-0.5099319749993143				-0.22894115666493367	1.584530900282586	-0.4467268845871624	-0.21013465310071713	1.9018936736053629	-0.5409408955515146	-0.18813716706480543	1.7513154688330388	-0.5100219116653233	-0.14986474343512862	1.6228992471630503	-0.47140125347435	-0.17862049051858425	1.5679204907238438	-0.5328967250935639	-0.15858220803911205	1.5897644621686222	-0.5284713948361767	-0.1582014225347573	1.6036737827781256	-0.48779213296781326	-0.2103602582555169	2.0664858512202082	-0.49584931225698053	-0.23296310774565013	2.1348267376285075	-0.5183575060205081	-0.22560986248455742	2.063488038336616	-0.41089159941732617	-0.2927207267829451	2.096240626255937	-0.41749858198381307	-0.25473041688933773	2.1403951811550606	-0.4508198151407615	-0.19017759787724323	2.0701672235293986	-0.5721784722465265	-0.21759969580029406	2.0791126089764242	-0.6575665804876601	-0.22260990344902112	2.123726488755325	-0.5912131859827084
63	2.1	-0.23143055437404608	1.894531934780246	-0.47654820875120424	-0.24480488392124455	1.891670398330548	-0.4164474889364911	-0.2447104178311377	1.7385216983712806	-0.3862961663515967	-0.22050606533921788	1.5601761556244726	-0.4893017472452851	-0.2663667628028408	1.5290933083590135	-0.5099319749993143				-0.22894115666493367	1.584530900282586	-0.4467268845871624	-0.2138818821950501	1.8963449117997964	-0.5353079339373942	-0.19092171788139645	1.7462852344330804	-0.5105103456180421	-0.14856731102262552	1.6188695873235315	-0.46741173250237555	-0.17862049051858425	1.5679204907238438	-0.5328967250935639	-0.15858220803911205	1.5897644621686222	-0.5284713948361767	-0.1582014225347573	1.6036737827781256	-0.48779213296781326	-0.21226377106526262	2.065227445375301	-0.4931632313149085	-0.23731135894762076	2.1304245189140874	-0.5129014712629181	-0.22554910307974307	2.0626944555728284	-0.4101991582287208	-0.2944337218670856	2.0950664052314623	-0.414947492958078	-0.25917707213775654	2.140598522609441	-0.4488170168271571	-0.1940144790409981	2.068925684938671	-0.5756122730683987	-0.23198705143439602	2.069047092169128	-0.6370079984320471	-0.21877140019545555	2.124124679912741	-0.5952362471821507
64	2.1333333333333333	-0.23149788024942794	1.8905767724953406	-0.4757303027224717	-0.24482622798276707	1.8874827192026047	-0.41569774544238336	-0.2474933507708203	1.7319187349062477	-0.3960842042296944	-0.22050606533921788	1.5601761556244726	-0.4893017472452851	-0.2663667628028408	1.5290933083590135	-0.5099319749993143				-0.22894115666493367	1.584530900282586	-0.4467268845871624	-0.21585225137336891	1.8950082934293353	-0.5327538533833363	-0.19349621827294175	1.742827859618657	-0.5116419709732357	-0.14833089096440072	1.6120035258887102	-0.4714058906558977	-0.17862049051858425	1.5679204907238438	-0.5328967250935639	-0.1533707566224881	1.589225828725367	-0.5294815935951988	-0.1582014225347573	1.6036737827781256	-0.48779213296781326	-0.2162519355960696	2.0650470998797585	-0.48858074430265486	-0.24505600562536758	2.1293988726918216	-0.5193562389143659	-0.22756885446983702	2.0613746685472933	-0.4079895027260156	-0.2913002425302049	2.0573316548719065	-0.369974810080829	-0.2777215958860112	2.113542211848285	-0.4602973051964731	-0.20125072346741227	2.066040135954704	-0.5625915721048149	-0.246374407068498	2.058981575361832	-0.6164494163764342	-0.21493289694188994	2.1245228710701567	-0.599259308381593
65	2.1666666666666665	-0.23521800497785963	1.8905245576657117	-0.47100479117700256	-0.244452920162867	1.8869349711982486	-0.40659132038209206	-0.25049562694875327	1.7264070653187709	-0.39669042576439983	-0.22050606533921788	1.5601761556244726	-0.4893017472452851	-0.2663667628028408	1.5290933083590135	-0.5099319749993143				-0.22894115666493367	1.584530900282586	-0.4467268845871624	-0.21983639507179392	1.895811293269025	-0.5283445580089234	-0.2010347313778267	1.7450749972350563	-0.5301094149629137	-0.14760778610064149	1.6205601421796696	-0.4718638215752342	-0.17862049051858425	1.5679204907238438	-0.5328967250935639	-0.15159094530623016	1.5880562293099436	-0.5217016171713824	-0.1582014225347573	1.6036737827781256	-0.48779213296781326	-0.21956890951856536	2.0567402970955717	-0.47972982045938484	-0.25213247658701715	2.1273860682229775	-0.517190974044166	-0.23042484810012304	2.056794866335471	-0.39929780472794185	-0.2864792451215408	2.038048570765156	-0.36581206198949173	-0.2889283973950169	2.090233608746746	-0.46662087280565934	-0.2032943248422238	2.059552284436611	-0.5583627145175113	-0.24634746185770406	2.028760577817079	-0.5838417355265163	-0.23326404978731236	2.1051261032292614	-0.6023208613151129
